<mxfile host="app.diagrams.net" modified="2023-09-17T11:25:00.276Z" agent="Mozilla/5.0 (Windows NT 10.0; Win64; x64) AppleWebKit/537.36 (KHTML, like Gecko) Chrome/114.0.0.0 YaBrowser/23.7.5.734 Yowser/2.5 Safari/537.36" etag="QJAccv1vCnC9QfAXXPr_" version="21.6.6" type="device">
  <diagram name="Страница 1" id="bYTtxUrRGukn5dWunuVq">
    <mxGraphModel dx="875" dy="473" grid="1" gridSize="10" guides="1" tooltips="1" connect="1" arrows="1" fold="1" page="1" pageScale="1" pageWidth="827" pageHeight="1169" math="0" shadow="0">
      <root>
        <mxCell id="0" />
        <mxCell id="1" parent="0" />
        <mxCell id="NEkLJAMp8XwBHO0fQvia-18" style="edgeStyle=orthogonalEdgeStyle;rounded=0;orthogonalLoop=1;jettySize=auto;html=1;exitX=0;exitY=0.5;exitDx=0;exitDy=0;endArrow=open;endFill=0;endSize=9;startArrow=diamondThin;startFill=0;startSize=10;" edge="1" parent="1" source="NEkLJAMp8XwBHO0fQvia-1" target="NEkLJAMp8XwBHO0fQvia-2">
          <mxGeometry relative="1" as="geometry" />
        </mxCell>
        <mxCell id="NEkLJAMp8XwBHO0fQvia-1" value="&lt;p style=&quot;line-height: 120%;&quot;&gt;&lt;i&gt;&lt;font face=&quot;Times New Roman&quot; style=&quot;font-size: 12px;&quot;&gt;ParkingSpace&lt;/font&gt;&lt;/i&gt;&lt;/p&gt;" style="rounded=1;whiteSpace=wrap;html=1;" vertex="1" parent="1">
          <mxGeometry x="540" y="370" width="120" height="60" as="geometry" />
        </mxCell>
        <mxCell id="NEkLJAMp8XwBHO0fQvia-2" value="&lt;i&gt;&lt;font face=&quot;Times New Roman&quot; style=&quot;font-size: 12px;&quot;&gt;AbstractCar&lt;/font&gt;&lt;/i&gt;" style="rounded=1;whiteSpace=wrap;html=1;" vertex="1" parent="1">
          <mxGeometry x="210" y="370" width="120" height="60" as="geometry" />
        </mxCell>
        <mxCell id="NEkLJAMp8XwBHO0fQvia-7" style="edgeStyle=orthogonalEdgeStyle;rounded=0;orthogonalLoop=1;jettySize=auto;html=1;exitX=0.5;exitY=0;exitDx=0;exitDy=0;entryX=0.5;entryY=1;entryDx=0;entryDy=0;endArrow=block;endFill=0;" edge="1" parent="1" source="NEkLJAMp8XwBHO0fQvia-5" target="NEkLJAMp8XwBHO0fQvia-2">
          <mxGeometry relative="1" as="geometry" />
        </mxCell>
        <mxCell id="NEkLJAMp8XwBHO0fQvia-5" value="PassengerСar" style="rounded=1;whiteSpace=wrap;html=1;" vertex="1" parent="1">
          <mxGeometry x="110" y="480" width="120" height="60" as="geometry" />
        </mxCell>
        <mxCell id="NEkLJAMp8XwBHO0fQvia-9" style="edgeStyle=orthogonalEdgeStyle;rounded=0;orthogonalLoop=1;jettySize=auto;html=1;exitX=0.5;exitY=0;exitDx=0;exitDy=0;entryX=0.5;entryY=1;entryDx=0;entryDy=0;endArrow=block;endFill=0;" edge="1" parent="1" source="NEkLJAMp8XwBHO0fQvia-6" target="NEkLJAMp8XwBHO0fQvia-2">
          <mxGeometry relative="1" as="geometry" />
        </mxCell>
        <mxCell id="NEkLJAMp8XwBHO0fQvia-6" value="Truck" style="rounded=1;whiteSpace=wrap;html=1;" vertex="1" parent="1">
          <mxGeometry x="300" y="480" width="120" height="60" as="geometry" />
        </mxCell>
        <mxCell id="NEkLJAMp8XwBHO0fQvia-19" value="" style="edgeStyle=orthogonalEdgeStyle;rounded=0;orthogonalLoop=1;jettySize=auto;html=1;endArrow=open;endFill=0;endSize=10;startArrow=diamondThin;startFill=0;startSize=10;" edge="1" parent="1" source="NEkLJAMp8XwBHO0fQvia-10" target="NEkLJAMp8XwBHO0fQvia-1">
          <mxGeometry relative="1" as="geometry" />
        </mxCell>
        <mxCell id="NEkLJAMp8XwBHO0fQvia-10" value="Parking" style="rounded=1;whiteSpace=wrap;html=1;" vertex="1" parent="1">
          <mxGeometry x="540" y="250" width="120" height="60" as="geometry" />
        </mxCell>
        <mxCell id="NEkLJAMp8XwBHO0fQvia-14" style="edgeStyle=orthogonalEdgeStyle;rounded=0;orthogonalLoop=1;jettySize=auto;html=1;exitX=0.5;exitY=0;exitDx=0;exitDy=0;entryX=0.5;entryY=1;entryDx=0;entryDy=0;endArrow=block;endFill=0;" edge="1" parent="1" source="NEkLJAMp8XwBHO0fQvia-15">
          <mxGeometry relative="1" as="geometry">
            <mxPoint x="600" y="430" as="targetPoint" />
          </mxGeometry>
        </mxCell>
        <mxCell id="NEkLJAMp8XwBHO0fQvia-15" value="PassengerСarSpace" style="rounded=1;whiteSpace=wrap;html=1;" vertex="1" parent="1">
          <mxGeometry x="440" y="480" width="120" height="60" as="geometry" />
        </mxCell>
        <mxCell id="NEkLJAMp8XwBHO0fQvia-16" style="edgeStyle=orthogonalEdgeStyle;rounded=0;orthogonalLoop=1;jettySize=auto;html=1;exitX=0.5;exitY=0;exitDx=0;exitDy=0;entryX=0.5;entryY=1;entryDx=0;entryDy=0;endArrow=block;endFill=0;" edge="1" parent="1" source="NEkLJAMp8XwBHO0fQvia-17">
          <mxGeometry relative="1" as="geometry">
            <mxPoint x="600" y="430" as="targetPoint" />
          </mxGeometry>
        </mxCell>
        <mxCell id="NEkLJAMp8XwBHO0fQvia-17" value="TruckSpace" style="rounded=1;whiteSpace=wrap;html=1;" vertex="1" parent="1">
          <mxGeometry x="630" y="480" width="120" height="60" as="geometry" />
        </mxCell>
      </root>
    </mxGraphModel>
  </diagram>
</mxfile>
